<svg width="60" height="60" viewBox="0 0 60 60" fill="none" xmlns="http://www.w3.org/2000/svg">
<g id="Instagram">
<path id="Combined Shape" fill-rule="evenodd" clip-rule="evenodd" d="M30 0C13.4315 0 0 13.4315 0 30C0 46.5685 13.4315 60 30 60C46.5685 60 60 46.5685 60 30C60 13.4315 46.5685 0 30 0ZM23.4041 14.0967C25.1108 14.019 25.6561 14 30.0015 14H29.9965C34.3432 14 34.8866 14.019 36.5932 14.0967C38.2966 14.1747 39.4599 14.4443 40.4799 14.84C41.5333 15.2483 42.4233 15.795 43.3133 16.685C44.2033 17.5744 44.75 18.467 45.16 19.5194C45.5533 20.5367 45.8233 21.6994 45.9033 23.4028C45.98 25.1094 46 25.6548 46 30.0002C46 34.3455 45.98 34.8895 45.9033 36.5962C45.8233 38.2989 45.5533 39.4619 45.16 40.4796C44.75 41.5316 44.2033 42.4243 43.3133 43.3136C42.4243 44.2036 41.533 44.7517 40.4809 45.1603C39.4629 45.556 38.2989 45.8257 36.5956 45.9037C34.8889 45.9813 34.3452 46.0003 29.9995 46.0003C25.6545 46.0003 25.1094 45.9813 23.4028 45.9037C21.6997 45.8257 20.5367 45.556 19.5187 45.1603C18.467 44.7517 17.5744 44.2036 16.6854 43.3136C15.7957 42.4243 15.249 41.5316 14.84 40.4793C14.4447 39.4619 14.175 38.2993 14.0967 36.5959C14.0193 34.8892 14 34.3455 14 30.0002C14 25.6548 14.02 25.1091 14.0963 23.4024C14.173 21.6997 14.443 20.5367 14.8397 19.5191C15.2497 18.467 15.7964 17.5744 16.6864 16.685C17.5757 15.7954 18.4684 15.2487 19.5207 14.84C20.5381 14.4443 21.7007 14.1747 23.4041 14.0967Z" fill="white"/>
<path id="Combined Shape_2" fill-rule="evenodd" clip-rule="evenodd" d="M28.5661 16.8834C28.8448 16.883 29.1446 16.8831 29.4682 16.8832L30.0014 16.8834C34.2735 16.8834 34.7798 16.8987 36.4668 16.9754C38.0269 17.0467 38.8735 17.3074 39.4375 17.5264C40.1842 17.8164 40.7166 18.1631 41.2762 18.7231C41.8362 19.2831 42.1829 19.8164 42.4736 20.5631C42.6926 21.1264 42.9536 21.9731 43.0246 23.5331C43.1012 25.2198 43.1179 25.7265 43.1179 29.9965C43.1179 34.2666 43.1012 34.7732 43.0246 36.4599C42.9532 38.0199 42.6926 38.8666 42.4736 39.43C42.1836 40.1766 41.8362 40.7083 41.2762 41.268C40.7162 41.828 40.1846 42.1747 39.4375 42.4647C38.8742 42.6847 38.0269 42.9447 36.4668 43.016C34.7802 43.0927 34.2735 43.1093 30.0014 43.1093C25.7291 43.1093 25.2227 43.0927 23.536 43.016C21.976 42.944 21.1294 42.6833 20.565 42.4643C19.8183 42.1743 19.285 41.8277 18.725 41.2676C18.165 40.7076 17.8183 40.1756 17.5277 39.4286C17.3086 38.8653 17.0476 38.0186 16.9766 36.4586C16.9 34.7719 16.8846 34.2652 16.8846 29.9925C16.8846 25.7198 16.9 25.2158 16.9766 23.5291C17.048 21.9691 17.3086 21.1224 17.5277 20.5584C17.8177 19.8118 18.165 19.2784 18.725 18.7184C19.285 18.1584 19.8183 17.8117 20.565 17.5211C21.129 17.3011 21.976 17.0411 23.536 16.9694C25.0121 16.9027 25.5841 16.8827 28.5661 16.8794V16.8834ZM38.5422 19.5401C37.4822 19.5401 36.6222 20.3991 36.6222 21.4594C36.6222 22.5195 37.4822 23.3795 38.5422 23.3795C39.6022 23.3795 40.4622 22.5195 40.4622 21.4594C40.4622 20.3994 39.6022 19.5394 38.5422 19.5394V19.5401ZM21.7847 30.0002C21.7847 25.4626 25.4636 21.7836 30.0011 21.7834C34.5388 21.7834 38.2169 25.4625 38.2169 30.0002C38.2169 34.5379 34.5392 38.2153 30.0014 38.2153C25.4637 38.2153 21.7847 34.5379 21.7847 30.0002Z" fill="white"/>
<path id="Shape" fill-rule="evenodd" clip-rule="evenodd" d="M30.0015 24.6667C32.9468 24.6667 35.3349 27.0544 35.3349 30.0001C35.3349 32.9455 32.9468 35.3335 30.0015 35.3335C27.0558 35.3335 24.6681 32.9455 24.6681 30.0001C24.6681 27.0544 27.0558 24.6667 30.0015 24.6667V24.6667Z" fill="white"/>
</g>
</svg>
